<?xml version="1.0" encoding="UTF-8" standalone="no"?>
<!-- Created with Inkscape (http://www.inkscape.org/) -->

<svg
   xmlns:dc="http://purl.org/dc/elements/1.1/"
   xmlns:cc="http://creativecommons.org/ns#"
   xmlns:rdf="http://www.w3.org/1999/02/22-rdf-syntax-ns#"
   xmlns:svg="http://www.w3.org/2000/svg"
   xmlns="http://www.w3.org/2000/svg"
   xmlns:sodipodi="http://sodipodi.sourceforge.net/DTD/sodipodi-0.dtd"
   xmlns:inkscape="http://www.inkscape.org/namespaces/inkscape"
   width="1000"
   height="1000"
   viewBox="0 0 1000 1000"
   id="svg5519"
   version="1.1"
   inkscape:version="0.91 r13725"
   sodipodi:docname="craft.svg">
  <defs
     id="defs5521" />
  <sodipodi:namedview
     id="base"
     pagecolor="#bfbfc6"
     bordercolor="#666666"
     borderopacity="1.0"
     inkscape:pageopacity="0"
     inkscape:pageshadow="2"
     inkscape:zoom="0.35"
     inkscape:cx="311.57448"
     inkscape:cy="146.30128"
     inkscape:document-units="px"
     inkscape:current-layer="layer1"
     showgrid="true"
     units="px"
     inkscape:snap-bbox="true"
     inkscape:bbox-nodes="true"
     inkscape:window-width="2560"
     inkscape:window-height="1412"
     inkscape:window-x="0"
     inkscape:window-y="28"
     inkscape:window-maximized="1">
    <inkscape:grid
       type="xygrid"
       id="grid6067" />
  </sodipodi:namedview>
  <metadata
     id="metadata5524">
    <rdf:RDF>
      <cc:Work
         rdf:about="">
        <dc:format>image/svg+xml</dc:format>
        <dc:type
           rdf:resource="http://purl.org/dc/dcmitype/StillImage" />
        <dc:title></dc:title>
      </cc:Work>
    </rdf:RDF>
  </metadata>
  <g
     inkscape:label="Layer 1"
     inkscape:groupmode="layer"
     id="layer1"
     transform="translate(0,-52.362161)">
    <path
       inkscape:connector-curvature="0"
       style="opacity:1;fill:#494144;fill-opacity:1;stroke:none;stroke-width:2.5;stroke-miterlimit:4;stroke-dasharray:2.5, 2.5;stroke-dashoffset:0;stroke-opacity:1"
       d="M 500.00003,52.362161 A 499.99999,499.99997 0 0 0 0,552.36217 499.99999,499.99997 0 0 0 500.00003,1052.3622 499.99999,499.99997 0 0 0 1000,552.36217 499.99999,499.99997 0 0 0 779.60181,138.02697 c -5.3364,0.30104 -10.79195,0.52823 -16.34908,0.69665 -44.23775,1.34055 -94.9522,-1.33403 -142.88063,-2.09481 -47.92847,-0.76074 -93.10335,0.44872 -125.7586,9.21896 -16.32762,4.38512 -29.45225,10.64787 -38.34323,19.18231 -8.89098,8.5344 -13.77068,19.23946 -13.77068,33.67239 0,29.73475 9.30305,46.50591 24.91544,56.73469 15.61243,10.22884 38.25915,13.73109 64.69604,14.48647 52.87384,1.51067 120.29159,-7.82311 176.30531,10.84816 27.76879,9.25611 46.56019,20.10708 58.37342,32.32068 11.81317,12.21365 16.45665,25.94353 15.64287,39.77823 -1.62763,27.66933 -23.67196,55.40207 -48.2672,79.99713 -23.80134,23.80159 -27.87097,44.66086 -26.43744,59.71323 1.18018,12.39153 6.08464,20.63367 7.80054,23.19458 l 0.93488,0 c 1.68897,0 3.04879,1.35982 3.04879,3.04878 l 0,7.31708 -12.19513,0 0,-7.31708 c 0,-0.76749 0.29019,-1.45884 0.75507,-1.99365 -2.56043,-4.60263 -6.23977,-12.84159 -7.26348,-23.59111 -1.61525,-16.95981 3.46146,-40.3078 28.44061,-65.28676 24.18537,-24.18549 44.82385,-51.33074 46.24501,-75.49068 0.7106,-12.07993 -3.03007,-23.50359 -13.70166,-34.53695 -10.67152,-11.03329 -28.46548,-21.52275 -55.57476,-30.55927 -53.74238,-17.91403 -120.47104,-8.95518 -174.30452,-10.49329 -26.91677,-0.76902 -50.7639,-4.12653 -68.30695,-15.62025 -17.54311,-11.49371 -28.05714,-31.30914 -28.05714,-62.54999 0,-16.05488 5.79098,-28.97677 15.90726,-38.68738 10.11628,-9.71061 24.33542,-16.30988 41.35384,-20.88055 27.65495,-7.42732 62.89525,-9.53165 100.94202,-9.65013 2.195,-0.006 4.39933,-0.006 6.61208,0 6.6381,0.0171 13.35201,0.088 20.11719,0.19531 48.10817,0.7636 98.76568,3.42439 142.56147,2.09725 2.02098,-0.0612 4.01049,-0.1417 6.0011,-0.22152 A 499.99999,499.99997 0 0 0 500.00003,52.362161 Z M 206.6633,302.36217 l 30.57592,0 c 3.0161,0 5.44372,2.42884 5.44372,5.44493 l 0,6.75018 0,48.78049 0,9.80019 c 0,3.01609 -2.42762,5.44372 -5.44372,5.44372 l -30.57592,0 c -3.01609,0 -5.44377,-2.42763 -5.44377,-5.44372 l 0,-65.33086 c 0,-3.01609 2.42768,-5.44493 5.44377,-5.44493 z m 291.23118,9.48578 c 13.32311,0.0122 25.46433,7.64678 31.24763,19.64915 l -62.47976,0 c 5.78097,-11.99762 17.91427,-19.63085 31.23213,-19.64915 z m -253.99202,2.70933 51.82926,0 0,0.10482 c 1.01543,-0.0458 2.03177,-0.0811 3.04878,-0.10482 46.52129,0.006 86.56574,22.59159 95.6627,53.95751 l -13.58378,10.86719 C 371.90069,368.1835 346.12887,359.8935 314.02441,357.84997 l 0,14.63415 c 0,5.47682 -3.58354,10.06628 -8.53659,11.61512 l 0,-0.0299 -8.53658,0 -1.82927,0 -3.04878,0 -1.21952,0 -10.97561,0 0,0.0299 c -4.95305,-1.5489 -8.53658,-6.1383 -8.53658,-11.61512 l 0,-9.14635 -27.43902,0 0,-48.78049 z m 221.34147,18.29269 65.2439,0 0,5.4878 -65.2439,0 0,-5.4878 z m 4.48628,7.18488 1.26238,0 1.26238,0 0,70.12195 a 1.2624575,70.12191 0 0 1 -1.26238,70.12195 1.2624575,70.12191 0 0 1 -1.26238,-70.12195 l 0,-70.12195 z m -9.60963,0.0464 8.16737,0 c -0.20493,14.40347 -0.31323,30.20817 -0.31323,46.22829 0,58.63768 1.38872,106.17396 3.10238,106.16787 1.71366,0 3.1036,-47.53178 3.1036,-106.16787 0,-16.01981 -0.10829,-31.82445 -0.31324,-46.22829 l 16.92434,0 c -0.55287,14.62073 -0.84317,30.71768 -0.84317,47.03817 -6e-5,58.63542 3.62445,106.16781 8.09475,106.16781 4.46933,-0.0159 8.09122,-47.54396 8.09116,-106.16781 -0.006,-16.32689 -0.29415,-32.42415 -0.84914,-47.03817 l 16.07755,0 c -0.20493,14.40365 -0.312,30.20835 -0.312,46.22829 0,58.63603 1.38872,106.16787 3.10237,106.16787 1.71367,0 3.10238,-47.53092 3.10238,-106.16787 0,-16.01981 -0.10714,-31.82445 -0.31207,-46.22829 l 8.44013,0 0,165.69287 -6.53105,0 c -4.85262,4.02915 -7.66689,10.00366 -7.68267,16.31098 0.0104,8.98128 5.65908,16.98853 14.11725,20.00884 l 0,3.27029 c 1.43054,1.76842 2.28896,4.02013 2.28896,6.4822 l 0,14.49842 c 0,5.70731 -4.5942,10.30153 -10.30153,10.30153 l -17.36018,0 0,0.19292 -25.36202,0 0,-0.19292 -16.80164,0 c -5.70743,0 -10.30159,-4.59422 -10.30159,-10.30153 l 0,-14.49842 c 0,-2.87389 1.16805,-5.46499 3.05354,-7.33018 l 0,-2.52238 c 8.31854,-3.09634 13.83958,-11.03255 13.85055,-19.90877 -0.014,-6.30586 -2.82487,-12.28025 -7.67439,-16.31098 l -6.55841,0 0,-165.69287 z m 33.34604,0.0643 4.57316,0 4.57317,0 0,70.12195 a 4.573171,70.12191 0 0 1 -4.57317,70.12196 4.573171,70.12191 0 0 1 -4.57316,-70.12196 l 0,-70.12195 z m 29.35762,0.0286 1.26237,0 1.26239,0 0,70.12195 a 1.2624575,70.12191 0 0 1 -1.26239,70.12196 1.2624575,70.12191 0 0 1 -1.26237,-70.12196 l 0,-70.12195 z m -242.33642,44.50506 10.39092,0 2.41396,59.14634 -1.20756,-59.14634 3.0714,0 3.62396,64.0244 -1.81256,-64.0244 7.91012,0 0,3.04878 7.83994,206.88123 c 2.30903,60.93185 13.12933,197.26429 10.45275,210.80173 -1.52957,6.29074 -4.805,10.73251 -12.44403,13.14074 l -5.84866,-193.01881 0,194.32168 c -1.10597,0.16889 -2.25274,0.32097 -3.4906,0.43591 -0.6064,0.23213 -1.26312,0.36439 -1.95311,0.36439 l -0.65385,0 0,-158.53659 -5.87127,158.53659 -0.22628,0 -6.75135,0 -17.6389,0 c 0,0 -6.09757,0 -6.09757,-6.09756 0,-6.09757 18.29269,-103.65854 18.29269,-219.51222 l 0,-207.31709 0,-3.04878 z m 432.92685,143.2927 c 43.91464,0 79.26831,35.35366 79.26831,79.26829 l 0,103.65856 0,30.4878 0,30.48781 c 0,27.02433 -21.75617,48.78049 -48.78049,48.78049 l -30.48782,0 -30.4878,0 c -27.02433,0 -48.78049,-21.75616 -48.78049,-48.78049 l 0,-30.48781 0,-30.4878 0,-103.65856 c 0,-43.91463 35.35366,-79.26829 79.26829,-79.26829 z m -9.78945,9.14633 c -33.42414,0 -60.3325,27.09226 -60.3325,60.7458 l 0,0.45969 c 0,1.58348 0.0591,3.15177 0.17628,4.70415 -0.11153,0.47683 -0.17628,0.97165 -0.17628,1.4839 l 0,48.13978 c 0,3.55573 2.84353,6.41793 6.37506,6.41793 l 53.95744,0 7.87684,0 4.96139,0 6.74067,0 53.95751,0 c 3.53152,0 6.375,-2.8622 6.375,-6.41793 l 0,-48.13978 c 0,-0.51225 -0.0647,-1.00701 -0.17622,-1.4839 0.11714,-1.55238 0.17622,-3.12067 0.17622,-4.70415 l 0,-0.45969 c 0,-33.65354 -26.90835,-60.7458 -60.33251,-60.7458 l -6.74067,0 -4.96139,0 -7.87684,0 z m 0.42519,3.04878 7.535,0 0,67.07318 -1.21952,0 c -3.37799,0 -6.09756,2.71951 -6.09756,6.09755 l 0,27.43906 c 0,3.37793 2.71957,6.09756 6.09756,6.09756 l 1.21952,0 0,9.14634 -7.535,0 -51.61134,0 c -3.37799,0 -6.09757,-2.71964 -6.09757,-6.09756 l 0,-45.73173 c 0,-0.48665 0.0625,-0.95702 0.16914,-1.41006 -0.11176,-1.47476 -0.16914,-2.96525 -0.16914,-4.46957 l 0,-0.43586 c 0,-31.97079 25.73805,-57.70891 57.70891,-57.70891 z m 11.19354,0 7.53506,0 c 31.97085,0 57.70884,25.73812 57.70884,57.70891 l 0,0.43586 c 0,1.50432 -0.0573,2.99481 -0.16909,4.46957 0.10665,0.45304 0.16909,0.92341 0.16909,1.41006 l 0,45.73173 c 0,3.37792 -2.71957,6.09756 -6.09756,6.09756 l -51.61128,0 -7.53506,0 0,-9.14634 1.2195,0 c 3.37799,0 6.09757,-2.71963 6.09757,-6.09756 l 0,-27.43906 c 0,-3.37804 -2.71958,-6.09755 -6.09757,-6.09755 l -1.2195,0 0,-67.07318 z m -230.69143,41.25025 25.36202,0 0,162.51552 -0.10719,0 6.78354,21.01274 -7.39208,39.24592 -23.43159,0 -7.75768,-39.21495 6.80018,-21.04371 -0.2572,0 0,-162.51552 z m 227.64265,27.6522 2.43902,0 c 1.37585,0 2.63805,0.45646 3.65615,1.21951 l -9.75134,0 c 1.01811,-0.76305 2.28031,-1.21951 3.65617,-1.21951 z m -4.35879,1.82926 11.15665,0 c 0.51475,0.52555 0.93348,1.14408 1.23141,1.82927 l -13.61946,0 c 0.29793,-0.68519 0.71665,-1.30372 1.2314,-1.82927 z m -1.46127,2.43902 14.0792,0 c 0.18013,0.57702 0.27744,1.19129 0.27744,1.82928 l 0,1.2195 -14.63415,0 0,-1.2195 c 0,-0.63799 0.0974,-1.25226 0.27751,-1.82928 z m -0.27751,3.65854 14.63415,0 0,4.2683 -14.63415,0 0,-4.2683 z m 0,5.48781 14.63415,0 0,9.14637 -14.63415,0 0,-9.14637 z m 0,10.36588 14.63415,0 0,4.26829 -14.63415,0 0,-4.26829 z m 0,4.87805 14.63415,0 0,1.2195 c 0,0.63787 -0.0973,1.25215 -0.27744,1.82928 l -14.0792,0 c -0.18013,-0.57713 -0.27751,-1.19141 -0.27751,-1.82928 l 0,-1.2195 z m 0.50738,3.65854 13.61946,0 c -0.29793,0.68506 -0.71672,1.30365 -1.23141,1.82926 l -11.15665,0 c -0.51469,-0.52561 -0.93347,-1.1442 -1.2314,-1.82926 z m 1.93402,2.43902 9.75134,0 c -1.0181,0.76293 -2.2803,1.21951 -3.65615,1.21951 l -2.43902,0 c -1.37586,0 -2.63806,-0.45658 -3.65617,-1.21951 z m -222.53001,161.58536 22.95994,0 -2.87134,15.24391 -17.07317,0 -3.01543,-15.24391 z m 12.26061,74.9869 c 8.88574,0 16.36311,3.915 22.4336,11.745 3.12318,4.88274 4.68512,10.11817 4.68512,15.70476 l 0,5.08048 3.82641,0 c 2.72731,0 4.68482,1.60501 5.87249,4.81616 l 0,1.18854 c 0,2.85927 -1.5834,4.81677 -4.7506,5.8725 l -1.91263,0.13097 -3.03567,0 0,20.32324 2.11147,0 c 2.99127,0 4.92604,1.60609 5.80579,4.81731 l 0.1989,1.25286 c 0,2.59531 -1.3636,4.46556 -4.09085,5.60928 -0.61586,0.2639 -1.36396,0.39536 -2.24372,0.39536 l -15.7036,0 c -4.13488,-0.5278 -6.20238,-2.5295 -6.20238,-6.00464 l 0,-0.19773 c 0.52787,-3.915 2.52848,-5.87244 6.00348,-5.87244 l 2.04603,0 0,-20.32324 -30.15432,0 0,20.32324 2.57359,0 c 2.50738,0 4.35488,1.62762 5.54257,4.8828 l 0,1.31958 c 0,3.38713 -1.98019,5.34463 -5.93915,5.87243 l -16.09897,0 c -2.99122,0 -4.99292,-1.56189 -6.00469,-4.68512 l -0.1989,-1.31952 c 0.70384,-4.047 2.70555,-6.07017 6.00469,-6.07017 l 2.11153,0 0,-20.32324 -2.96903,0 c -2.90323,0 -4.94915,-1.12097 -6.13683,-3.36438 -0.39591,-0.92372 -0.59311,-1.87019 -0.59311,-2.83799 0,-2.6833 1.64921,-4.61811 4.94835,-5.8058 l 4.75062,0 0,-3.29884 c 0,-8.40189 2.15579,-14.89092 6.46676,-19.46573 1.8475,-2.24342 3.84921,-4.04677 6.00464,-5.41043 4.75079,-2.90323 9.63365,-4.35524 14.64841,-4.35524 z m -161.9891,0.13219 1.38629,0 c 7.43408,0 14.09762,3.14537 19.99213,9.43574 4.22293,5.4106 6.33457,10.97475 6.33457,16.69328 l 0,1.38622 c 0,2.46343 -1.60615,4.28824 -4.81731,5.47592 l -1.58274,0 c -2.94732,0 -4.83902,-1.93475 -5.67483,-5.80579 0,-6.02646 -2.77127,-10.55689 -8.31383,-13.59207 -2.02348,-1.01177 -4.09092,-1.51842 -6.20238,-1.51842 l -1.1219,0 c -4.00292,0 -7.65377,1.8033 -10.95298,5.41037 -2.28738,2.85926 -3.43104,6.02731 -3.43104,9.50244 l 0,5.41036 2.24372,0 c 3.915,0.52787 5.87244,2.52958 5.87244,6.0047 -0.61585,4.00299 -2.64025,6.00347 -6.07134,6.00347 l -2.04482,0 0,5.41159 c 0,5.32263 2.5072,9.63311 7.52189,12.93231 2.37543,1.31964 4.79415,1.97934 7.25756,1.97934 l 0.32988,0 c 5.4986,0 9.85452,-2.5514 13.06567,-7.65415 1.31964,-2.24335 1.97934,-5.12463 1.97934,-8.64372 1.27566,-3.1672 3.2989,-4.75061 6.07017,-4.75061 3.91501,0.65982 5.8725,2.59579 5.8725,5.80696 l 0,1.25286 c 0,6.46634 -2.61713,12.53714 -7.85182,18.2117 -5.63056,5.23464 -11.96543,7.85177 -19.00367,7.85177 l -0.26322,0 c -9.28159,0 -16.93586,-4.22322 -22.96232,-12.66908 -2.68329,-4.61885 -4.02531,-9.45756 -4.02531,-14.51628 l 0,-5.21269 -2.04482,0 c -2.8153,0 -4.7728,-1.53921 -5.8725,-4.61841 l -0.1989,-1.58396 c 0,-2.6833 1.51768,-4.55232 4.55293,-5.60805 l 1.31957,-0.19775 2.24372,0 0,-5.21268 c 0,-9.85341 4.3547,-17.66189 13.06451,-23.42439 4.44281,-2.50738 8.88598,-3.76098 13.32884,-3.76098 z m 52.32471,0 27.44859,0 c 8.1819,0 14.64824,3.67354 19.39903,11.01969 1.97951,3.56311 2.97018,7.19123 2.97018,10.88629 l 0,0.52878 c 0,6.37726 -2.65225,11.92793 -7.94585,16.65518 4.19408,4.09878 6.29525,9.36695 6.29525,15.80836 l 0,9.83116 1.84829,0 c 4.17896,0.4839 6.26786,2.50707 6.26786,6.07017 0,2.90324 -1.64914,4.90495 -4.94829,6.00464 l -17.41975,0 c -3.34312,0 -5.30062,-1.95744 -5.87245,-5.87243 0,-3.73903 2.11159,-5.80647 6.33452,-6.20238 l 1.78165,0 0,-10.16104 c 0,-4.31085 -2.2658,-7.50049 -6.79666,-9.56792 -1.18768,-0.39592 -2.41975,-0.59428 -3.69542,-0.59428 l -11.41506,0 0,20.32324 1.31951,0 c 2.94726,0 4.99317,1.20938 6.13689,3.62878 l 0.65976,2.37585 c -0.79177,4.04695 -2.81507,6.07018 -6.07013,6.07018 l -16.36342,0 c -2.85926,0 -4.79524,-1.56189 -5.80695,-4.68512 l -0.19768,-1.18731 c 0,-2.9033 1.62763,-4.948 4.88281,-6.13567 l 1.78159,-0.0667 1.58274,0 0,-20.32324 -3.89311,0 c -3.95903,-0.52786 -5.93799,-2.57256 -5.93799,-6.13567 0,-2.77128 1.58341,-4.66304 4.75061,-5.67475 l 1.45176,-0.19775 3.62873,0 0,-20.32317 -1.91262,0 c -3.07921,0 -5.12513,-1.58342 -6.13684,-4.75061 l -0.19768,-1.25408 c 0.61586,-4.04701 2.63903,-6.07019 6.07013,-6.07019 z m 171.35818,0 44.34067,0 c 1.14372,0 2.50726,0.61543 4.09085,1.84714 1.05574,1.40768 1.58397,2.99225 1.58397,4.75183 l 0,21.5761 c 0,3.12317 -1.32055,5.21213 -3.95988,6.26786 l -1.38506,0.46207 -1.25403,0 c -2.41938,0 -4.17847,-1.51768 -5.27817,-4.55292 l -0.19774,-1.18738 0,-17.08982 -23.68878,0 0,20.32317 5.74146,0 0,-9.50122 c 0,-3.25518 1.34091,-5.38951 4.02415,-6.40122 0.61591,-0.21993 1.27554,-0.32988 1.97932,-0.32988 l 0.32994,0 c 3.82702,0.57184 5.74147,2.52928 5.74147,5.87244 l 0,32.92568 c 0,2.41939 -1.51769,4.28957 -4.55293,5.60926 l -1.45177,0.0655 c -2.68329,0 -4.59658,-1.40775 -5.74024,-4.22306 -0.22,-0.61585 -0.32994,-1.34122 -0.32994,-2.17701 l 0,-9.83232 -5.74146,0 0,20.32324 2.04603,0 c 2.85927,0 4.81677,1.51768 5.87251,4.55292 l 0.19768,1.5839 c 0,2.9033 -1.73762,4.88227 -5.21275,5.93799 l -17.1553,0 c -3.91501,-0.65982 -5.8725,-2.66152 -5.8725,-6.00464 0,-2.68335 1.34207,-4.59657 4.02537,-5.74029 0.57182,-0.21995 1.25304,-0.32988 2.04481,-0.32988 l 2.04604,0 0,-20.32324 -3.36562,0 c -2.94725,0 -4.92621,-1.31933 -5.93792,-3.95866 -0.26397,-0.48383 -0.39659,-1.165 -0.39659,-2.04481 l 0,-0.39659 c 0,-2.55134 1.51769,-4.35463 4.55293,-5.41036 l 1.31951,-0.19775 3.82769,0 0,-20.32317 -1.38628,0 c -2.90324,0 -4.94799,-1.14372 -6.13567,-3.4311 -0.39586,-0.83579 -0.59427,-1.75951 -0.59427,-2.77128 0.65987,-3.91499 2.61731,-5.8725 5.8725,-5.8725 z m 72.58122,0 53.44652,0 c 3.60708,0.70385 5.41044,2.81549 5.41044,6.33458 l 0,22.23585 c 0,2.85927 -1.23208,4.79525 -3.6955,5.80695 -0.48383,0.35195 -1.20926,0.52762 -2.17701,0.52762 l -0.65975,0 c -2.59536,0 -4.44287,-1.67182 -5.54262,-5.015 l 0,-17.81512 -13.92196,0 0,20.32317 7.12537,0 c 3.915,0.52787 5.87244,2.48537 5.87244,5.8725 l 0,0.1322 c 0,3.38713 -1.97896,5.38768 -5.93799,6.00347 l -7.05982,0 0,20.32324 9.9633,0 c 3.07933,0 5.1239,1.58341 6.13573,4.75061 l 0.19884,1.18853 c 0,2.68329 -1.34201,4.59659 -4.0253,5.74031 -0.52793,0.2639 -1.23177,0.39536 -2.11153,0.39536 l -32.39805,0 c -4.00299,-0.65982 -6.00347,-2.68305 -6.00347,-6.07018 0,-2.59536 1.36347,-4.48708 4.09079,-5.67475 0.61585,-0.21995 1.36274,-0.32988 2.24256,-0.32988 l 9.83231,0 0,-20.32324 -6.79664,0 c -3.12317,0 -5.14641,-1.69341 -6.07019,-5.08048 l 0,-1.31958 c 0,-2.55134 1.51769,-4.35463 4.55293,-5.41036 l 1.31957,-0.19775 6.99433,0 0,-20.32317 -13.79097,0 0,16.82543 c 0,2.8153 -1.62769,4.81695 -4.88281,6.00469 l -1.71494,0 c -2.41938,0 -4.17969,-1.56195 -5.27938,-4.68511 l -0.19769,-1.18739 0,-22.83012 c 0,-3.25518 1.69335,-5.32255 5.08049,-6.20238 z m -134.4072,11.87713 c -5.19061,6e-5 -9.47963,2.48574 -12.86678,7.45647 -1.40762,2.1994 -2.11151,5.38781 -2.11151,9.56671 l 0,3.49774 30.15432,0 0,-5.21268 c 0,-6.24635 -3.03537,-10.95366 -9.10585,-14.12086 -2.15542,-0.79177 -4.17859,-1.18738 -6.07018,-1.18738 z m -95.28031,0.19775 0,20.32317 13.4611,0 c 3.6511,0 6.59805,-1.78177 8.84146,-5.34488 0.79176,-1.4956 1.18731,-3.03481 1.18731,-4.61841 l 0,-0.52878 c 0,-3.915 -2.06743,-6.9492 -6.20238,-9.10464 -1.31962,-0.48389 -2.59469,-0.72646 -3.82639,-0.72646 l -13.4611,0 z m 26.59109,27.89872 c -0.38408,0.31555 -0.77865,0.62817 -1.18737,0.93603 l 1.18737,0 0,-0.93603 z"
       id="path5415-0-5"
       inkscape:export-xdpi="90"
       inkscape:export-ydpi="90" />
  </g>
</svg>
